G04 start of page 9 for group -3984 idx -3984 *
G04 Title: D3, fab *
G04 Creator: pcb 20100929 *
G04 CreationDate: 2012年01月16日 星期一 05时02分32秒 UTC *
G04 For: dword *
G04 Format: Gerber/RS-274X *
G04 PCB-Dimensions: 200000 200000 *
G04 PCB-Coordinate-Origin: lower left *
%MOIN*%
%FSLAX25Y25*%
%LNFAB*%
%ADD11C,0.0200*%
%ADD18C,0.0100*%
%ADD21C,0.0080*%
%ADD22C,0.0060*%
G54D21*X108800Y121200D02*X111200Y118800D01*
X108800D02*X111200Y121200D01*
X118800D02*X121200Y118800D01*
X118800D02*X121200Y121200D01*
X13800Y227450D02*X16200Y225050D01*
X13800D02*X16200Y227450D01*
G54D22*X135000Y228500D02*Y227750D01*
X136500Y226250D01*
X138000Y227750D01*
Y228500D02*Y227750D01*
X136500Y226250D02*Y222500D01*
X139801Y225500D02*X142051D01*
X139801Y222500D02*X142801D01*
X139801Y228500D02*Y222500D01*
Y228500D02*X142801D01*
X147603D02*X148353Y227750D01*
X145353Y228500D02*X147603D01*
X144603Y227750D02*X145353Y228500D01*
X144603Y227750D02*Y226250D01*
X145353Y225500D01*
X147603D01*
X148353Y224750D01*
Y223250D01*
X147603Y222500D02*X148353Y223250D01*
X145353Y222500D02*X147603D01*
X144603Y223250D02*X145353Y222500D01*
X135000Y219249D02*X150154D01*
X98000Y227750D02*X98750Y228500D01*
X101000D01*
X101750Y227750D01*
Y226250D01*
X98000Y222500D02*X101750Y226250D01*
X98000Y222500D02*X101750D01*
X98000Y219249D02*X103551D01*
X45000Y223250D02*X45750Y222500D01*
X45000Y227750D02*Y223250D01*
Y227750D02*X45750Y228500D01*
X47250D01*
X48000Y227750D01*
Y223250D01*
X47250Y222500D02*X48000Y223250D01*
X45750Y222500D02*X47250D01*
X45000Y224000D02*X48000Y227000D01*
X49801Y222500D02*X50551D01*
X52353Y223250D02*X53103Y222500D01*
X52353Y227750D02*Y223250D01*
Y227750D02*X53103Y228500D01*
X54603D01*
X55353Y227750D01*
Y223250D01*
X54603Y222500D02*X55353Y223250D01*
X53103Y222500D02*X54603D01*
X52353Y224000D02*X55353Y227000D01*
X57154Y227750D02*X57904Y228500D01*
X59404D01*
X60154Y227750D01*
Y223250D01*
X59404Y222500D02*X60154Y223250D01*
X57904Y222500D02*X59404D01*
X57154Y223250D02*X57904Y222500D01*
Y225500D02*X60154D01*
X61956Y223250D02*X62706Y222500D01*
X61956Y224750D02*Y223250D01*
Y224750D02*X62706Y225500D01*
X64206D01*
X64956Y224750D01*
Y223250D01*
X64206Y222500D02*X64956Y223250D01*
X62706Y222500D02*X64206D01*
X61956Y226250D02*X62706Y225500D01*
X61956Y227750D02*Y226250D01*
Y227750D02*X62706Y228500D01*
X64206D01*
X64956Y227750D01*
Y226250D01*
X64206Y225500D02*X64956Y226250D01*
X45000Y219249D02*X66757D01*
X80000Y151600D02*Y148400D01*
X78400Y150000D02*X81600D01*
X110000Y151600D02*Y148400D01*
X108400Y150000D02*X111600D01*
X10000Y151600D02*Y148400D01*
X8400Y150000D02*X11600D01*
X10000Y141600D02*Y138400D01*
X8400Y140000D02*X11600D01*
X90000Y121600D02*Y118400D01*
X88400Y120000D02*X91600D01*
X90000Y111600D02*Y108400D01*
X88400Y110000D02*X91600D01*
X40000Y181600D02*Y178400D01*
X38400Y180000D02*X41600D01*
X60000Y181600D02*Y178400D01*
X58400Y180000D02*X61600D01*
X10000Y181600D02*Y178400D01*
X8400Y180000D02*X11600D01*
X10000Y191600D02*Y188400D01*
X8400Y190000D02*X11600D01*
X15000Y242850D02*Y239650D01*
X13400Y241250D02*X16600D01*
X135000Y243500D02*Y242750D01*
X136500Y241250D01*
X138000Y242750D01*
Y243500D02*Y242750D01*
X136500Y241250D02*Y237500D01*
X139801Y240500D02*X142051D01*
X139801Y237500D02*X142801D01*
X139801Y243500D02*Y237500D01*
Y243500D02*X142801D01*
X147603D02*X148353Y242750D01*
X145353Y243500D02*X147603D01*
X144603Y242750D02*X145353Y243500D01*
X144603Y242750D02*Y241250D01*
X145353Y240500D01*
X147603D01*
X148353Y239750D01*
Y238250D01*
X147603Y237500D02*X148353Y238250D01*
X145353Y237500D02*X147603D01*
X144603Y238250D02*X145353Y237500D01*
X135000Y234249D02*X150154D01*
X98750Y237500D02*X100250D01*
X99500Y243500D02*Y237500D01*
X98000Y242000D02*X99500Y243500D01*
X102051Y238250D02*X102801Y237500D01*
X102051Y242750D02*Y238250D01*
Y242750D02*X102801Y243500D01*
X104301D01*
X105051Y242750D01*
Y238250D01*
X104301Y237500D02*X105051Y238250D01*
X102801Y237500D02*X104301D01*
X102051Y239000D02*X105051Y242000D01*
X98000Y234249D02*X106853D01*
X45000Y238250D02*X45750Y237500D01*
X45000Y242750D02*Y238250D01*
Y242750D02*X45750Y243500D01*
X47250D01*
X48000Y242750D01*
Y238250D01*
X47250Y237500D02*X48000Y238250D01*
X45750Y237500D02*X47250D01*
X45000Y239000D02*X48000Y242000D01*
X49801Y237500D02*X50551D01*
X52353Y238250D02*X53103Y237500D01*
X52353Y242750D02*Y238250D01*
Y242750D02*X53103Y243500D01*
X54603D01*
X55353Y242750D01*
Y238250D01*
X54603Y237500D02*X55353Y238250D01*
X53103Y237500D02*X54603D01*
X52353Y239000D02*X55353Y242000D01*
X57154Y242750D02*X57904Y243500D01*
X59404D01*
X60154Y242750D01*
Y238250D01*
X59404Y237500D02*X60154Y238250D01*
X57904Y237500D02*X59404D01*
X57154Y238250D02*X57904Y237500D01*
Y240500D02*X60154D01*
X61956Y238250D02*X62706Y237500D01*
X61956Y242750D02*Y238250D01*
Y242750D02*X62706Y243500D01*
X64206D01*
X64956Y242750D01*
Y238250D01*
X64206Y237500D02*X64956Y238250D01*
X62706Y237500D02*X64206D01*
X61956Y239000D02*X64956Y242000D01*
X45000Y234249D02*X66757D01*
X10000Y160000D02*Y158400D01*
Y160000D02*X11386Y160800D01*
X10000Y160000D02*X8614Y160800D01*
X20000Y160000D02*Y158400D01*
Y160000D02*X21386Y160800D01*
X20000Y160000D02*X18614Y160800D01*
X20000Y120000D02*Y118400D01*
Y120000D02*X21386Y120800D01*
X20000Y120000D02*X18614Y120800D01*
X20000Y130000D02*Y128400D01*
Y130000D02*X21386Y130800D01*
X20000Y130000D02*X18614Y130800D01*
X70000Y100000D02*Y98400D01*
Y100000D02*X71386Y100800D01*
X70000Y100000D02*X68614Y100800D01*
X70000Y110000D02*Y108400D01*
Y110000D02*X71386Y110800D01*
X70000Y110000D02*X68614Y110800D01*
X80000Y140000D02*Y138400D01*
Y140000D02*X81386Y140800D01*
X80000Y140000D02*X78614Y140800D01*
X80000Y130000D02*Y128400D01*
Y130000D02*X81386Y130800D01*
X80000Y130000D02*X78614Y130800D01*
X90000Y140000D02*Y138400D01*
Y140000D02*X91386Y140800D01*
X90000Y140000D02*X88614Y140800D01*
X90000Y130000D02*Y128400D01*
Y130000D02*X91386Y130800D01*
X90000Y130000D02*X88614Y130800D01*
X100000Y140000D02*Y138400D01*
Y140000D02*X101386Y140800D01*
X100000Y140000D02*X98614Y140800D01*
X100000Y130000D02*Y128400D01*
Y130000D02*X101386Y130800D01*
X100000Y130000D02*X98614Y130800D01*
X40000Y150000D02*Y148400D01*
Y150000D02*X41386Y150800D01*
X40000Y150000D02*X38614Y150800D01*
X40000Y140000D02*Y138400D01*
Y140000D02*X41386Y140800D01*
X40000Y140000D02*X38614Y140800D01*
X40000Y130000D02*Y128400D01*
Y130000D02*X41386Y130800D01*
X40000Y130000D02*X38614Y130800D01*
X40000Y120000D02*Y118400D01*
Y120000D02*X41386Y120800D01*
X40000Y120000D02*X38614Y120800D01*
X70000Y120000D02*Y118400D01*
Y120000D02*X71386Y120800D01*
X70000Y120000D02*X68614Y120800D01*
X70000Y130000D02*Y128400D01*
Y130000D02*X71386Y130800D01*
X70000Y130000D02*X68614Y130800D01*
X70000Y140000D02*Y138400D01*
Y140000D02*X71386Y140800D01*
X70000Y140000D02*X68614Y140800D01*
X70000Y150000D02*Y148400D01*
Y150000D02*X71386Y150800D01*
X70000Y150000D02*X68614Y150800D01*
X30000Y140000D02*Y138400D01*
Y140000D02*X31386Y140800D01*
X30000Y140000D02*X28614Y140800D01*
X30000Y130000D02*Y128400D01*
Y130000D02*X31386Y130800D01*
X30000Y130000D02*X28614Y130800D01*
X90000Y180000D02*Y178400D01*
Y180000D02*X91386Y180800D01*
X90000Y180000D02*X88614Y180800D01*
X90000Y190000D02*Y188400D01*
Y190000D02*X91386Y190800D01*
X90000Y190000D02*X88614Y190800D01*
X20000Y110000D02*Y108400D01*
Y110000D02*X21386Y110800D01*
X20000Y110000D02*X18614Y110800D01*
X10000Y110000D02*Y108400D01*
Y110000D02*X11386Y110800D01*
X10000Y110000D02*X8614Y110800D01*
X20000Y100000D02*Y98400D01*
Y100000D02*X21386Y100800D01*
X20000Y100000D02*X18614Y100800D01*
X10000Y100000D02*Y98400D01*
Y100000D02*X11386Y100800D01*
X10000Y100000D02*X8614Y100800D01*
X30000Y100000D02*Y98400D01*
Y100000D02*X31386Y100800D01*
X30000Y100000D02*X28614Y100800D01*
X30000Y110000D02*Y108400D01*
Y110000D02*X31386Y110800D01*
X30000Y110000D02*X28614Y110800D01*
X15000Y256250D02*Y254650D01*
Y256250D02*X16386Y257050D01*
X15000Y256250D02*X13614Y257050D01*
X135000Y258500D02*Y257750D01*
X136500Y256250D01*
X138000Y257750D01*
Y258500D02*Y257750D01*
X136500Y256250D02*Y252500D01*
X139801Y255500D02*X142051D01*
X139801Y252500D02*X142801D01*
X139801Y258500D02*Y252500D01*
Y258500D02*X142801D01*
X147603D02*X148353Y257750D01*
X145353Y258500D02*X147603D01*
X144603Y257750D02*X145353Y258500D01*
X144603Y257750D02*Y256250D01*
X145353Y255500D01*
X147603D01*
X148353Y254750D01*
Y253250D01*
X147603Y252500D02*X148353Y253250D01*
X145353Y252500D02*X147603D01*
X144603Y253250D02*X145353Y252500D01*
X135000Y249249D02*X150154D01*
X98000Y257750D02*X98750Y258500D01*
X100250D01*
X101000Y257750D01*
Y253250D01*
X100250Y252500D02*X101000Y253250D01*
X98750Y252500D02*X100250D01*
X98000Y253250D02*X98750Y252500D01*
Y255500D02*X101000D01*
X102801Y253250D02*X103551Y252500D01*
X102801Y257750D02*Y253250D01*
Y257750D02*X103551Y258500D01*
X105051D01*
X105801Y257750D01*
Y253250D01*
X105051Y252500D02*X105801Y253250D01*
X103551Y252500D02*X105051D01*
X102801Y254000D02*X105801Y257000D01*
X98000Y249249D02*X107603D01*
X45000Y253250D02*X45750Y252500D01*
X45000Y257750D02*Y253250D01*
Y257750D02*X45750Y258500D01*
X47250D01*
X48000Y257750D01*
Y253250D01*
X47250Y252500D02*X48000Y253250D01*
X45750Y252500D02*X47250D01*
X45000Y254000D02*X48000Y257000D01*
X49801Y252500D02*X50551D01*
X52353Y253250D02*X53103Y252500D01*
X52353Y257750D02*Y253250D01*
Y257750D02*X53103Y258500D01*
X54603D01*
X55353Y257750D01*
Y253250D01*
X54603Y252500D02*X55353Y253250D01*
X53103Y252500D02*X54603D01*
X52353Y254000D02*X55353Y257000D01*
X57154Y257750D02*X57904Y258500D01*
X60154D01*
X60904Y257750D01*
Y256250D01*
X57154Y252500D02*X60904Y256250D01*
X57154Y252500D02*X60904D01*
X62706Y253250D02*X63456Y252500D01*
X62706Y254750D02*Y253250D01*
Y254750D02*X63456Y255500D01*
X64956D01*
X65706Y254750D01*
Y253250D01*
X64956Y252500D02*X65706Y253250D01*
X63456Y252500D02*X64956D01*
X62706Y256250D02*X63456Y255500D01*
X62706Y257750D02*Y256250D01*
Y257750D02*X63456Y258500D01*
X64956D01*
X65706Y257750D01*
Y256250D01*
X64956Y255500D02*X65706Y256250D01*
X45000Y249249D02*X67507D01*
X3000Y273500D02*X3750Y272750D01*
X750Y273500D02*X3000D01*
X0Y272750D02*X750Y273500D01*
X0Y272750D02*Y271250D01*
X750Y270500D01*
X3000D01*
X3750Y269750D01*
Y268250D01*
X3000Y267500D02*X3750Y268250D01*
X750Y267500D02*X3000D01*
X0Y268250D02*X750Y267500D01*
X5551Y270500D02*Y268250D01*
X6301Y267500D01*
X8551Y270500D02*Y266000D01*
X7801Y265250D02*X8551Y266000D01*
X6301Y265250D02*X7801D01*
X5551Y266000D02*X6301Y265250D01*
Y267500D02*X7801D01*
X8551Y268250D01*
X11103Y269750D02*Y267500D01*
Y269750D02*X11853Y270500D01*
X12603D01*
X13353Y269750D01*
Y267500D01*
Y269750D02*X14103Y270500D01*
X14853D01*
X15603Y269750D01*
Y267500D01*
X10353Y270500D02*X11103Y269750D01*
X17404Y273500D02*Y267500D01*
Y268250D02*X18154Y267500D01*
X19654D01*
X20404Y268250D01*
Y269750D02*Y268250D01*
X19654Y270500D02*X20404Y269750D01*
X18154Y270500D02*X19654D01*
X17404Y269750D02*X18154Y270500D01*
X22206Y269750D02*Y268250D01*
Y269750D02*X22956Y270500D01*
X24456D01*
X25206Y269750D01*
Y268250D01*
X24456Y267500D02*X25206Y268250D01*
X22956Y267500D02*X24456D01*
X22206Y268250D02*X22956Y267500D01*
X27007Y273500D02*Y268250D01*
X27757Y267500D01*
X41750Y273500D02*Y267500D01*
X44000Y273500D02*X44750Y272750D01*
Y268250D01*
X44000Y267500D02*X44750Y268250D01*
X41000Y267500D02*X44000D01*
X41000Y273500D02*X44000D01*
X46551Y272000D02*Y271250D01*
Y269750D02*Y267500D01*
X50303Y270500D02*X51053Y269750D01*
X48803Y270500D02*X50303D01*
X48053Y269750D02*X48803Y270500D01*
X48053Y269750D02*Y268250D01*
X48803Y267500D01*
X51053Y270500D02*Y268250D01*
X51803Y267500D01*
X48803D02*X50303D01*
X51053Y268250D01*
X54354Y269750D02*Y267500D01*
Y269750D02*X55104Y270500D01*
X55854D01*
X56604Y269750D01*
Y267500D01*
Y269750D02*X57354Y270500D01*
X58104D01*
X58854Y269750D01*
Y267500D01*
X53604Y270500D02*X54354Y269750D01*
X60656Y267500D02*X61406D01*
X65907Y268250D02*X66657Y267500D01*
X65907Y272750D02*X66657Y273500D01*
X65907Y272750D02*Y268250D01*
X68459Y273500D02*X69959D01*
X69209D02*Y267500D01*
X68459D02*X69959D01*
X72510Y269750D02*Y267500D01*
Y269750D02*X73260Y270500D01*
X74010D01*
X74760Y269750D01*
Y267500D01*
X71760Y270500D02*X72510Y269750D01*
X77312Y270500D02*X79562D01*
X76562Y269750D02*X77312Y270500D01*
X76562Y269750D02*Y268250D01*
X77312Y267500D01*
X79562D01*
X81363Y273500D02*Y267500D01*
Y269750D02*X82113Y270500D01*
X83613D01*
X84363Y269750D01*
Y267500D01*
X86165Y273500D02*X86915Y272750D01*
Y268250D01*
X86165Y267500D02*X86915Y268250D01*
X95750Y267500D02*X98000D01*
X95000Y268250D02*X95750Y267500D01*
X95000Y272750D02*Y268250D01*
Y272750D02*X95750Y273500D01*
X98000D01*
X99801Y269750D02*Y268250D01*
Y269750D02*X100551Y270500D01*
X102051D01*
X102801Y269750D01*
Y268250D01*
X102051Y267500D02*X102801Y268250D01*
X100551Y267500D02*X102051D01*
X99801Y268250D02*X100551Y267500D01*
X104603Y270500D02*Y268250D01*
X105353Y267500D01*
X106853D01*
X107603Y268250D01*
Y270500D02*Y268250D01*
X110154Y269750D02*Y267500D01*
Y269750D02*X110904Y270500D01*
X111654D01*
X112404Y269750D01*
Y267500D01*
X109404Y270500D02*X110154Y269750D01*
X114956Y273500D02*Y268250D01*
X115706Y267500D01*
X114206Y271250D02*X115706D01*
X130750Y273500D02*Y267500D01*
X130000Y273500D02*X133000D01*
X133750Y272750D01*
Y271250D01*
X133000Y270500D02*X133750Y271250D01*
X130750Y270500D02*X133000D01*
X135551Y273500D02*Y268250D01*
X136301Y267500D01*
X140053Y270500D02*X140803Y269750D01*
X138553Y270500D02*X140053D01*
X137803Y269750D02*X138553Y270500D01*
X137803Y269750D02*Y268250D01*
X138553Y267500D01*
X140803Y270500D02*Y268250D01*
X141553Y267500D01*
X138553D02*X140053D01*
X140803Y268250D01*
X144104Y273500D02*Y268250D01*
X144854Y267500D01*
X143354Y271250D02*X144854D01*
X147106Y267500D02*X149356D01*
X146356Y268250D02*X147106Y267500D01*
X146356Y269750D02*Y268250D01*
Y269750D02*X147106Y270500D01*
X148606D01*
X149356Y269750D01*
X146356Y269000D02*X149356D01*
Y269750D02*Y269000D01*
X154157Y273500D02*Y267500D01*
X153407D02*X154157Y268250D01*
X151907Y267500D02*X153407D01*
X151157Y268250D02*X151907Y267500D01*
X151157Y269750D02*Y268250D01*
Y269750D02*X151907Y270500D01*
X153407D01*
X154157Y269750D01*
X157459Y270500D02*Y269750D01*
Y268250D02*Y267500D01*
X155959Y272750D02*Y272000D01*
Y272750D02*X156709Y273500D01*
X158209D01*
X158959Y272750D01*
Y272000D01*
X157459Y270500D02*X158959Y272000D01*
X0Y288500D02*X3000D01*
X1500D02*Y282500D01*
X4801Y288500D02*Y282500D01*
Y284750D02*X5551Y285500D01*
X7051D01*
X7801Y284750D01*
Y282500D01*
X10353D02*X12603D01*
X9603Y283250D02*X10353Y282500D01*
X9603Y284750D02*Y283250D01*
Y284750D02*X10353Y285500D01*
X11853D01*
X12603Y284750D01*
X9603Y284000D02*X12603D01*
Y284750D02*Y284000D01*
X15154Y284750D02*Y282500D01*
Y284750D02*X15904Y285500D01*
X17404D01*
X14404D02*X15154Y284750D01*
X19956Y282500D02*X22206D01*
X19206Y283250D02*X19956Y282500D01*
X19206Y284750D02*Y283250D01*
Y284750D02*X19956Y285500D01*
X21456D01*
X22206Y284750D01*
X19206Y284000D02*X22206D01*
Y284750D02*Y284000D01*
X28957Y285500D02*X29707Y284750D01*
X27457Y285500D02*X28957D01*
X26707Y284750D02*X27457Y285500D01*
X26707Y284750D02*Y283250D01*
X27457Y282500D01*
X29707Y285500D02*Y283250D01*
X30457Y282500D01*
X27457D02*X28957D01*
X29707Y283250D01*
X33009Y284750D02*Y282500D01*
Y284750D02*X33759Y285500D01*
X35259D01*
X32259D02*X33009Y284750D01*
X37810Y282500D02*X40060D01*
X37060Y283250D02*X37810Y282500D01*
X37060Y284750D02*Y283250D01*
Y284750D02*X37810Y285500D01*
X39310D01*
X40060Y284750D01*
X37060Y284000D02*X40060D01*
Y284750D02*Y284000D01*
X44562Y287750D02*X45312Y288500D01*
X46812D01*
X47562Y287750D01*
Y283250D01*
X46812Y282500D02*X47562Y283250D01*
X45312Y282500D02*X46812D01*
X44562Y283250D02*X45312Y282500D01*
Y285500D02*X47562D01*
X55063Y288500D02*Y282500D01*
X54313D02*X55063Y283250D01*
X52813Y282500D02*X54313D01*
X52063Y283250D02*X52813Y282500D01*
X52063Y284750D02*Y283250D01*
Y284750D02*X52813Y285500D01*
X54313D01*
X55063Y284750D01*
X56865Y287000D02*Y286250D01*
Y284750D02*Y282500D01*
X59116Y287750D02*Y282500D01*
Y287750D02*X59866Y288500D01*
X60616D01*
X58366Y285500D02*X59866D01*
X62868Y287750D02*Y282500D01*
Y287750D02*X63618Y288500D01*
X64368D01*
X62118Y285500D02*X63618D01*
X66619Y282500D02*X68869D01*
X65869Y283250D02*X66619Y282500D01*
X65869Y284750D02*Y283250D01*
Y284750D02*X66619Y285500D01*
X68119D01*
X68869Y284750D01*
X65869Y284000D02*X68869D01*
Y284750D02*Y284000D01*
X71421Y284750D02*Y282500D01*
Y284750D02*X72171Y285500D01*
X73671D01*
X70671D02*X71421Y284750D01*
X76222Y282500D02*X78472D01*
X75472Y283250D02*X76222Y282500D01*
X75472Y284750D02*Y283250D01*
Y284750D02*X76222Y285500D01*
X77722D01*
X78472Y284750D01*
X75472Y284000D02*X78472D01*
Y284750D02*Y284000D01*
X81024Y284750D02*Y282500D01*
Y284750D02*X81774Y285500D01*
X82524D01*
X83274Y284750D01*
Y282500D01*
X80274Y285500D02*X81024Y284750D01*
X85825Y288500D02*Y283250D01*
X86575Y282500D01*
X85075Y286250D02*X86575D01*
X93777Y288500D02*Y282500D01*
X93027D02*X93777Y283250D01*
X91527Y282500D02*X93027D01*
X90777Y283250D02*X91527Y282500D01*
X90777Y284750D02*Y283250D01*
Y284750D02*X91527Y285500D01*
X93027D01*
X93777Y284750D01*
X96328D02*Y282500D01*
Y284750D02*X97078Y285500D01*
X98578D01*
X95578D02*X96328Y284750D01*
X100380Y287000D02*Y286250D01*
Y284750D02*Y282500D01*
X101881Y288500D02*Y283250D01*
X102631Y282500D01*
X104133Y288500D02*Y283250D01*
X104883Y282500D01*
X109834D02*X112084D01*
X112834Y283250D01*
X112084Y284000D02*X112834Y283250D01*
X109834Y284000D02*X112084D01*
X109084Y284750D02*X109834Y284000D01*
X109084Y284750D02*X109834Y285500D01*
X112084D01*
X112834Y284750D01*
X109084Y283250D02*X109834Y282500D01*
X114636Y287000D02*Y286250D01*
Y284750D02*Y282500D01*
X116137Y285500D02*X119137D01*
X116137Y282500D02*X119137Y285500D01*
X116137Y282500D02*X119137D01*
X121689D02*X123939D01*
X120939Y283250D02*X121689Y282500D01*
X120939Y284750D02*Y283250D01*
Y284750D02*X121689Y285500D01*
X123189D01*
X123939Y284750D01*
X120939Y284000D02*X123939D01*
Y284750D02*Y284000D01*
X126490Y282500D02*X128740D01*
X129490Y283250D01*
X128740Y284000D02*X129490Y283250D01*
X126490Y284000D02*X128740D01*
X125740Y284750D02*X126490Y284000D01*
X125740Y284750D02*X126490Y285500D01*
X128740D01*
X129490Y284750D01*
X125740Y283250D02*X126490Y282500D01*
X133992Y285500D02*Y283250D01*
X134742Y282500D01*
X136242D01*
X136992Y283250D01*
Y285500D02*Y283250D01*
X139543Y282500D02*X141793D01*
X142543Y283250D01*
X141793Y284000D02*X142543Y283250D01*
X139543Y284000D02*X141793D01*
X138793Y284750D02*X139543Y284000D01*
X138793Y284750D02*X139543Y285500D01*
X141793D01*
X142543Y284750D01*
X138793Y283250D02*X139543Y282500D01*
X145095D02*X147345D01*
X144345Y283250D02*X145095Y282500D01*
X144345Y284750D02*Y283250D01*
Y284750D02*X145095Y285500D01*
X146595D01*
X147345Y284750D01*
X144345Y284000D02*X147345D01*
Y284750D02*Y284000D01*
X152146Y288500D02*Y282500D01*
X151396D02*X152146Y283250D01*
X149896Y282500D02*X151396D01*
X149146Y283250D02*X149896Y282500D01*
X149146Y284750D02*Y283250D01*
Y284750D02*X149896Y285500D01*
X151396D01*
X152146Y284750D01*
X156648Y287000D02*Y286250D01*
Y284750D02*Y282500D01*
X158899Y284750D02*Y282500D01*
Y284750D02*X159649Y285500D01*
X160399D01*
X161149Y284750D01*
Y282500D01*
X158149Y285500D02*X158899Y284750D01*
X166401Y288500D02*Y283250D01*
X167151Y282500D01*
X165651Y286250D02*X167151D01*
X168652Y288500D02*Y282500D01*
Y284750D02*X169402Y285500D01*
X170902D01*
X171652Y284750D01*
Y282500D01*
X173454Y287000D02*Y286250D01*
Y284750D02*Y282500D01*
X175705D02*X177955D01*
X178705Y283250D01*
X177955Y284000D02*X178705Y283250D01*
X175705Y284000D02*X177955D01*
X174955Y284750D02*X175705Y284000D01*
X174955Y284750D02*X175705Y285500D01*
X177955D01*
X178705Y284750D01*
X174955Y283250D02*X175705Y282500D01*
X183207Y288500D02*Y283250D01*
X183957Y282500D01*
X187708Y285500D02*X188458Y284750D01*
X186208Y285500D02*X187708D01*
X185458Y284750D02*X186208Y285500D01*
X185458Y284750D02*Y283250D01*
X186208Y282500D01*
X188458Y285500D02*Y283250D01*
X189208Y282500D01*
X186208D02*X187708D01*
X188458Y283250D01*
X191010Y285500D02*Y283250D01*
X191760Y282500D01*
X194010Y285500D02*Y281000D01*
X193260Y280250D02*X194010Y281000D01*
X191760Y280250D02*X193260D01*
X191010Y281000D02*X191760Y280250D01*
Y282500D02*X193260D01*
X194010Y283250D01*
X195811Y284750D02*Y283250D01*
Y284750D02*X196561Y285500D01*
X198061D01*
X198811Y284750D01*
Y283250D01*
X198061Y282500D02*X198811Y283250D01*
X196561Y282500D02*X198061D01*
X195811Y283250D02*X196561Y282500D01*
X200613Y285500D02*Y283250D01*
X201363Y282500D01*
X202863D01*
X203613Y283250D01*
Y285500D02*Y283250D01*
X206164Y288500D02*Y283250D01*
X206914Y282500D01*
X205414Y286250D02*X206914D01*
X208416Y281000D02*X209916Y282500D01*
X214417Y285500D02*X217417Y288500D01*
X214417Y285500D02*X218167D01*
X217417Y288500D02*Y282500D01*
X219969Y287750D02*X220719Y288500D01*
X222969D01*
X223719Y287750D01*
Y286250D01*
X219969Y282500D02*X223719Y286250D01*
X219969Y282500D02*X223719D01*
X228220Y288500D02*Y282500D01*
Y284750D02*X228970Y285500D01*
X230470D01*
X231220Y284750D01*
Y282500D01*
X233022Y284750D02*Y283250D01*
Y284750D02*X233772Y285500D01*
X235272D01*
X236022Y284750D01*
Y283250D01*
X235272Y282500D02*X236022Y283250D01*
X233772Y282500D02*X235272D01*
X233022Y283250D02*X233772Y282500D01*
X237823Y288500D02*Y283250D01*
X238573Y282500D01*
X240825D02*X243075D01*
X240075Y283250D02*X240825Y282500D01*
X240075Y284750D02*Y283250D01*
Y284750D02*X240825Y285500D01*
X242325D01*
X243075Y284750D01*
X240075Y284000D02*X243075D01*
Y284750D02*Y284000D01*
X245626Y282500D02*X247876D01*
X248626Y283250D01*
X247876Y284000D02*X248626Y283250D01*
X245626Y284000D02*X247876D01*
X244876Y284750D02*X245626Y284000D01*
X244876Y284750D02*X245626Y285500D01*
X247876D01*
X248626Y284750D01*
X244876Y283250D02*X245626Y282500D01*
X253878Y288500D02*Y283250D01*
X254628Y282500D01*
X253128Y286250D02*X254628D01*
X256129Y284750D02*Y283250D01*
Y284750D02*X256879Y285500D01*
X258379D01*
X259129Y284750D01*
Y283250D01*
X258379Y282500D02*X259129Y283250D01*
X256879Y282500D02*X258379D01*
X256129Y283250D02*X256879Y282500D01*
X261681Y288500D02*Y283250D01*
X262431Y282500D01*
X260931Y286250D02*X262431D01*
X266182Y285500D02*X266932Y284750D01*
X264682Y285500D02*X266182D01*
X263932Y284750D02*X264682Y285500D01*
X263932Y284750D02*Y283250D01*
X264682Y282500D01*
X266932Y285500D02*Y283250D01*
X267682Y282500D01*
X264682D02*X266182D01*
X266932Y283250D01*
X269484Y288500D02*Y283250D01*
X270234Y282500D01*
G54D18*X130000Y200000D02*X0D01*
X130000Y90000D02*Y200000D01*
X0Y90000D02*X130000D01*
X0Y200000D02*Y90000D01*
G54D22*X13648Y-9500D02*X16648D01*
X17398Y-8750D01*
Y-7250D02*Y-8750D01*
X16648Y-6500D02*X17398Y-7250D01*
X14398Y-6500D02*X16648D01*
X14398Y-3500D02*Y-9500D01*
X13648Y-3500D02*X16648D01*
X17398Y-4250D01*
Y-5750D01*
X16648Y-6500D02*X17398Y-5750D01*
X19199Y-7250D02*Y-8750D01*
Y-7250D02*X19949Y-6500D01*
X21449D01*
X22199Y-7250D01*
Y-8750D01*
X21449Y-9500D02*X22199Y-8750D01*
X19949Y-9500D02*X21449D01*
X19199Y-8750D02*X19949Y-9500D01*
X26251Y-6500D02*X27001Y-7250D01*
X24751Y-6500D02*X26251D01*
X24001Y-7250D02*X24751Y-6500D01*
X24001Y-7250D02*Y-8750D01*
X24751Y-9500D01*
X27001Y-6500D02*Y-8750D01*
X27751Y-9500D01*
X24751D02*X26251D01*
X27001Y-8750D01*
X30302Y-7250D02*Y-9500D01*
Y-7250D02*X31052Y-6500D01*
X32552D01*
X29552D02*X30302Y-7250D01*
X37354Y-3500D02*Y-9500D01*
X36604D02*X37354Y-8750D01*
X35104Y-9500D02*X36604D01*
X34354Y-8750D02*X35104Y-9500D01*
X34354Y-7250D02*Y-8750D01*
Y-7250D02*X35104Y-6500D01*
X36604D01*
X37354Y-7250D01*
X41855D02*Y-8750D01*
Y-7250D02*X42605Y-6500D01*
X44105D01*
X44855Y-7250D01*
Y-8750D01*
X44105Y-9500D02*X44855Y-8750D01*
X42605Y-9500D02*X44105D01*
X41855Y-8750D02*X42605Y-9500D01*
X46657Y-6500D02*Y-8750D01*
X47407Y-9500D01*
X48907D01*
X49657Y-8750D01*
Y-6500D02*Y-8750D01*
X52208Y-3500D02*Y-8750D01*
X52958Y-9500D01*
X51458Y-5750D02*X52958D01*
X54460Y-3500D02*Y-8750D01*
X55210Y-9500D01*
X56711Y-5000D02*Y-5750D01*
Y-7250D02*Y-9500D01*
X58963Y-7250D02*Y-9500D01*
Y-7250D02*X59713Y-6500D01*
X60463D01*
X61213Y-7250D01*
Y-9500D01*
X58213Y-6500D02*X58963Y-7250D01*
X63764Y-9500D02*X66014D01*
X63014Y-8750D02*X63764Y-9500D01*
X63014Y-7250D02*Y-8750D01*
Y-7250D02*X63764Y-6500D01*
X65264D01*
X66014Y-7250D01*
X63014Y-8000D02*X66014D01*
Y-7250D02*Y-8000D01*
X70516Y-5000D02*Y-5750D01*
Y-7250D02*Y-9500D01*
X72767D02*X75017D01*
X75767Y-8750D01*
X75017Y-8000D02*X75767Y-8750D01*
X72767Y-8000D02*X75017D01*
X72017Y-7250D02*X72767Y-8000D01*
X72017Y-7250D02*X72767Y-6500D01*
X75017D01*
X75767Y-7250D01*
X72017Y-8750D02*X72767Y-9500D01*
X81019Y-3500D02*Y-8750D01*
X81769Y-9500D01*
X80269Y-5750D02*X81769D01*
X83270Y-3500D02*Y-9500D01*
Y-7250D02*X84020Y-6500D01*
X85520D01*
X86270Y-7250D01*
Y-9500D01*
X88822D02*X91072D01*
X88072Y-8750D02*X88822Y-9500D01*
X88072Y-7250D02*Y-8750D01*
Y-7250D02*X88822Y-6500D01*
X90322D01*
X91072Y-7250D01*
X88072Y-8000D02*X91072D01*
Y-7250D02*Y-8000D01*
X96323Y-6500D02*X98573D01*
X95573Y-7250D02*X96323Y-6500D01*
X95573Y-7250D02*Y-8750D01*
X96323Y-9500D01*
X98573D01*
X101125D02*X103375D01*
X100375Y-8750D02*X101125Y-9500D01*
X100375Y-7250D02*Y-8750D01*
Y-7250D02*X101125Y-6500D01*
X102625D01*
X103375Y-7250D01*
X100375Y-8000D02*X103375D01*
Y-7250D02*Y-8000D01*
X105926Y-7250D02*Y-9500D01*
Y-7250D02*X106676Y-6500D01*
X107426D01*
X108176Y-7250D01*
Y-9500D01*
X105176Y-6500D02*X105926Y-7250D01*
X110728Y-3500D02*Y-8750D01*
X111478Y-9500D01*
X109978Y-5750D02*X111478D01*
X113729Y-9500D02*X115979D01*
X112979Y-8750D02*X113729Y-9500D01*
X112979Y-7250D02*Y-8750D01*
Y-7250D02*X113729Y-6500D01*
X115229D01*
X115979Y-7250D01*
X112979Y-8000D02*X115979D01*
Y-7250D02*Y-8000D01*
X118531Y-7250D02*Y-9500D01*
Y-7250D02*X119281Y-6500D01*
X120781D01*
X117781D02*X118531Y-7250D01*
X122582Y-3500D02*Y-8750D01*
X123332Y-9500D01*
X124834Y-5000D02*Y-5750D01*
Y-7250D02*Y-9500D01*
X127085Y-7250D02*Y-9500D01*
Y-7250D02*X127835Y-6500D01*
X128585D01*
X129335Y-7250D01*
Y-9500D01*
X126335Y-6500D02*X127085Y-7250D01*
X131887Y-9500D02*X134137D01*
X131137Y-8750D02*X131887Y-9500D01*
X131137Y-7250D02*Y-8750D01*
Y-7250D02*X131887Y-6500D01*
X133387D01*
X134137Y-7250D01*
X131137Y-8000D02*X134137D01*
Y-7250D02*Y-8000D01*
X138638Y-7250D02*Y-8750D01*
Y-7250D02*X139388Y-6500D01*
X140888D01*
X141638Y-7250D01*
Y-8750D01*
X140888Y-9500D02*X141638Y-8750D01*
X139388Y-9500D02*X140888D01*
X138638Y-8750D02*X139388Y-9500D01*
X144190Y-4250D02*Y-9500D01*
Y-4250D02*X144940Y-3500D01*
X145690D01*
X143440Y-6500D02*X144940D01*
X150641Y-3500D02*Y-8750D01*
X151391Y-9500D01*
X149891Y-5750D02*X151391D01*
X152893Y-3500D02*Y-9500D01*
Y-7250D02*X153643Y-6500D01*
X155143D01*
X155893Y-7250D01*
Y-9500D01*
X157694Y-5000D02*Y-5750D01*
Y-7250D02*Y-9500D01*
X159946D02*X162196D01*
X162946Y-8750D01*
X162196Y-8000D02*X162946Y-8750D01*
X159946Y-8000D02*X162196D01*
X159196Y-7250D02*X159946Y-8000D01*
X159196Y-7250D02*X159946Y-6500D01*
X162196D01*
X162946Y-7250D01*
X159196Y-8750D02*X159946Y-9500D01*
X168197Y-7250D02*Y-11750D01*
X167447Y-6500D02*X168197Y-7250D01*
X168947Y-6500D01*
X170447D01*
X171197Y-7250D01*
Y-8750D01*
X170447Y-9500D02*X171197Y-8750D01*
X168947Y-9500D02*X170447D01*
X168197Y-8750D02*X168947Y-9500D01*
X175249Y-6500D02*X175999Y-7250D01*
X173749Y-6500D02*X175249D01*
X172999Y-7250D02*X173749Y-6500D01*
X172999Y-7250D02*Y-8750D01*
X173749Y-9500D01*
X175999Y-6500D02*Y-8750D01*
X176749Y-9500D01*
X173749D02*X175249D01*
X175999Y-8750D01*
X179300Y-3500D02*Y-8750D01*
X180050Y-9500D01*
X178550Y-5750D02*X180050D01*
X181552Y-3500D02*Y-9500D01*
Y-7250D02*X182302Y-6500D01*
X183802D01*
X184552Y-7250D01*
Y-9500D01*
X200750Y228500D02*Y222500D01*
X203000Y228500D02*X203750Y227750D01*
Y223250D01*
X203000Y222500D02*X203750Y223250D01*
X200000Y222500D02*X203000D01*
X200000Y228500D02*X203000D01*
X207801Y225500D02*X208551Y224750D01*
X206301Y225500D02*X207801D01*
X205551Y224750D02*X206301Y225500D01*
X205551Y224750D02*Y223250D01*
X206301Y222500D01*
X208551Y225500D02*Y223250D01*
X209301Y222500D01*
X206301D02*X207801D01*
X208551Y223250D01*
X211853Y228500D02*Y223250D01*
X212603Y222500D01*
X211103Y226250D02*X212603D01*
X214854Y222500D02*X217104D01*
X214104Y223250D02*X214854Y222500D01*
X214104Y224750D02*Y223250D01*
Y224750D02*X214854Y225500D01*
X216354D01*
X217104Y224750D01*
X214104Y224000D02*X217104D01*
Y224750D02*Y224000D01*
X218906Y226250D02*X219656D01*
X218906Y224750D02*X219656D01*
X224157Y227750D02*X224907Y228500D01*
X227157D01*
X227907Y227750D01*
Y226250D01*
X224157Y222500D02*X227907Y226250D01*
X224157Y222500D02*X227907D01*
X229709Y223250D02*X230459Y222500D01*
X229709Y227750D02*Y223250D01*
Y227750D02*X230459Y228500D01*
X231959D01*
X232709Y227750D01*
Y223250D01*
X231959Y222500D02*X232709Y223250D01*
X230459Y222500D02*X231959D01*
X229709Y224000D02*X232709Y227000D01*
X235260Y222500D02*X236760D01*
X236010Y228500D02*Y222500D01*
X234510Y227000D02*X236010Y228500D01*
X238562Y227750D02*X239312Y228500D01*
X241562D01*
X242312Y227750D01*
Y226250D01*
X238562Y222500D02*X242312Y226250D01*
X238562Y222500D02*X242312D01*
G54D11*G36*
X244113Y230000D02*Y220249D01*
X251615D01*
Y230000D01*
X244113D01*
G37*
G36*
X253115D02*Y220249D01*
X260616D01*
Y230000D01*
X253115D01*
G37*
G36*
X262116D02*Y220249D01*
X269618D01*
Y230000D01*
X262116D01*
G37*
G54D22*X271118Y223250D02*X271868Y222500D01*
X271118Y227750D02*Y223250D01*
Y227750D02*X271868Y228500D01*
X273368D01*
X274118Y227750D01*
Y223250D01*
X273368Y222500D02*X274118Y223250D01*
X271868Y222500D02*X273368D01*
X271118Y224000D02*X274118Y227000D01*
X276669Y222500D02*X278169D01*
X277419Y228500D02*Y222500D01*
X275919Y227000D02*X277419Y228500D01*
G54D11*G36*
X279971Y230000D02*Y220249D01*
X287472D01*
Y230000D01*
X279971D01*
G37*
G36*
X288972D02*Y220249D01*
X296474D01*
Y230000D01*
X288972D01*
G37*
G36*
X297974D02*Y220249D01*
X305475D01*
Y230000D01*
X297974D01*
G37*
G54D22*X307725Y222500D02*X309225D01*
X308475Y228500D02*Y222500D01*
X306975Y227000D02*X308475Y228500D01*
X313277D02*X314027Y227750D01*
X311777Y228500D02*X313277D01*
X311027Y227750D02*X311777Y228500D01*
X311027Y227750D02*Y223250D01*
X311777Y222500D01*
X313277Y225500D02*X314027Y224750D01*
X311027Y225500D02*X313277D01*
X311777Y222500D02*X313277D01*
X314027Y223250D01*
Y224750D02*Y223250D01*
G54D11*G36*
X315828Y230000D02*Y220249D01*
X323330D01*
Y230000D01*
X315828D01*
G37*
G36*
X324830D02*Y220249D01*
X332331D01*
Y230000D01*
X324830D01*
G37*
G36*
X333831D02*Y220249D01*
X341333D01*
Y230000D01*
X333831D01*
G37*
G36*
X345533D02*Y220249D01*
X353034D01*
Y230000D01*
X345533D01*
G37*
G36*
X354534D02*Y220249D01*
X362036D01*
Y230000D01*
X354534D01*
G37*
G36*
X363536D02*Y220249D01*
X371037D01*
Y230000D01*
X363536D01*
G37*
G36*
X372537D02*Y220249D01*
X380039D01*
Y230000D01*
X372537D01*
G37*
G36*
X381539D02*Y220249D01*
X389040D01*
Y230000D01*
X381539D01*
G37*
G36*
X390540D02*Y220249D01*
X398042D01*
Y230000D01*
X390540D01*
G37*
G36*
X399542D02*Y220249D01*
X407043D01*
Y230000D01*
X399542D01*
G37*
G36*
X408543D02*Y220249D01*
X416045D01*
Y230000D01*
X408543D01*
G37*
G36*
X417545D02*Y220249D01*
X425046D01*
Y230000D01*
X417545D01*
G37*
G54D22*X429246Y223250D02*X429996Y222500D01*
X429246Y227750D02*Y223250D01*
Y227750D02*X429996Y228500D01*
X431496D01*
X432246Y227750D01*
Y223250D01*
X431496Y222500D02*X432246Y223250D01*
X429996Y222500D02*X431496D01*
X429246Y224000D02*X432246Y227000D01*
X434048Y228500D02*X437048D01*
X434048D02*Y225500D01*
X434798Y226250D01*
X436298D01*
X437048Y225500D01*
Y223250D01*
X436298Y222500D02*X437048Y223250D01*
X434798Y222500D02*X436298D01*
X434048Y223250D02*X434798Y222500D01*
G54D11*G36*
X438849Y230000D02*Y220249D01*
X446351D01*
Y230000D01*
X438849D01*
G37*
G36*
X447851D02*Y220249D01*
X455352D01*
Y230000D01*
X447851D01*
G37*
G36*
X456852D02*Y220249D01*
X464354D01*
Y230000D01*
X456852D01*
G37*
G54D22*X465854Y223250D02*X466604Y222500D01*
X465854Y227750D02*Y223250D01*
Y227750D02*X466604Y228500D01*
X468104D01*
X468854Y227750D01*
Y223250D01*
X468104Y222500D02*X468854Y223250D01*
X466604Y222500D02*X468104D01*
X465854Y224000D02*X468854Y227000D01*
X470655Y227750D02*X471405Y228500D01*
X473655D01*
X474405Y227750D01*
Y226250D01*
X470655Y222500D02*X474405Y226250D01*
X470655Y222500D02*X474405D01*
G54D11*G36*
X476207Y230000D02*Y220249D01*
X483708D01*
Y230000D01*
X476207D01*
G37*
G36*
X485208D02*Y220249D01*
X492710D01*
Y230000D01*
X485208D01*
G37*
G36*
X494210D02*Y220249D01*
X501711D01*
Y230000D01*
X494210D01*
G37*
G54D22*X503211Y227750D02*X503961Y228500D01*
X505461D01*
X506211Y227750D01*
Y223250D01*
X505461Y222500D02*X506211Y223250D01*
X503961Y222500D02*X505461D01*
X503211Y223250D02*X503961Y222500D01*
Y225500D02*X506211D01*
X508013Y227750D02*X508763Y228500D01*
X511013D01*
X511763Y227750D01*
Y226250D01*
X508013Y222500D02*X511763Y226250D01*
X508013Y222500D02*X511763D01*
G54D11*G36*
X513564Y230000D02*Y220249D01*
X521066D01*
Y230000D01*
X513564D01*
G37*
G36*
X522566D02*Y220249D01*
X530067D01*
Y230000D01*
X522566D01*
G37*
G36*
X531567D02*Y220249D01*
X539069D01*
Y230000D01*
X531567D01*
G37*
G54D22*X543269Y228500D02*Y223250D01*
X544019Y222500D01*
X545519D01*
X546269Y223250D01*
Y228500D02*Y223250D01*
X548070Y228500D02*X551070D01*
X549570D02*Y222500D01*
X553622D02*X555872D01*
X552872Y223250D02*X553622Y222500D01*
X552872Y227750D02*Y223250D01*
Y227750D02*X553622Y228500D01*
X555872D01*
X200000Y242750D02*Y237500D01*
Y242750D02*X200750Y243500D01*
X203000D01*
X203750Y242750D01*
Y237500D01*
X200000Y240500D02*X203750D01*
X205551D02*Y238250D01*
X206301Y237500D01*
X207801D01*
X208551Y238250D01*
Y240500D02*Y238250D01*
X211103Y243500D02*Y238250D01*
X211853Y237500D01*
X210353Y241250D02*X211853D01*
X213354Y243500D02*Y237500D01*
Y239750D02*X214104Y240500D01*
X215604D01*
X216354Y239750D01*
Y237500D01*
X218156Y239750D02*Y238250D01*
Y239750D02*X218906Y240500D01*
X220406D01*
X221156Y239750D01*
Y238250D01*
X220406Y237500D02*X221156Y238250D01*
X218906Y237500D02*X220406D01*
X218156Y238250D02*X218906Y237500D01*
X223707Y239750D02*Y237500D01*
Y239750D02*X224457Y240500D01*
X225957D01*
X222957D02*X223707Y239750D01*
X227759Y241250D02*X228509D01*
X227759Y239750D02*X228509D01*
X233010Y243500D02*X236760D01*
Y242750D01*
X233010Y239000D02*X236760Y242750D01*
X233010Y239000D02*Y237500D01*
X236760D01*
X238562Y243500D02*Y237500D01*
Y239750D02*X239312Y240500D01*
X240812D01*
X241562Y239750D01*
Y237500D01*
X245613Y240500D02*X246363Y239750D01*
X244113Y240500D02*X245613D01*
X243363Y239750D02*X244113Y240500D01*
X243363Y239750D02*Y238250D01*
X244113Y237500D01*
X246363Y240500D02*Y238250D01*
X247113Y237500D01*
X244113D02*X245613D01*
X246363Y238250D01*
X249665Y239750D02*Y237500D01*
Y239750D02*X250415Y240500D01*
X251165D01*
X251915Y239750D01*
Y237500D01*
X248915Y240500D02*X249665Y239750D01*
X255966Y240500D02*X256716Y239750D01*
X254466Y240500D02*X255966D01*
X253716Y239750D02*X254466Y240500D01*
X253716Y239750D02*Y238250D01*
X254466Y237500D01*
X255966D01*
X256716Y238250D01*
X253716Y236000D02*X254466Y235250D01*
X255966D01*
X256716Y236000D01*
Y240500D02*Y236000D01*
X261968Y237500D02*X264218D01*
X261218Y238250D02*X261968Y237500D01*
X261218Y242750D02*Y238250D01*
Y242750D02*X261968Y243500D01*
X264218D01*
X266019D02*Y237500D01*
Y239750D02*X266769Y240500D01*
X268269D01*
X269019Y239750D01*
Y237500D01*
X270821Y242000D02*Y241250D01*
Y239750D02*Y237500D01*
X200000Y258500D02*X203000D01*
X201500D02*Y252500D01*
X204801Y257000D02*Y256250D01*
Y254750D02*Y252500D01*
X207053Y258500D02*Y253250D01*
X207803Y252500D01*
X206303Y256250D02*X207803D01*
X209304Y258500D02*Y253250D01*
X210054Y252500D01*
X212306D02*X214556D01*
X211556Y253250D02*X212306Y252500D01*
X211556Y254750D02*Y253250D01*
Y254750D02*X212306Y255500D01*
X213806D01*
X214556Y254750D01*
X211556Y254000D02*X214556D01*
Y254750D02*Y254000D01*
X216357Y256250D02*X217107D01*
X216357Y254750D02*X217107D01*
X222359Y258500D02*Y252500D01*
X224609Y258500D02*X225359Y257750D01*
Y253250D01*
X224609Y252500D02*X225359Y253250D01*
X221609Y252500D02*X224609D01*
X221609Y258500D02*X224609D01*
X227160Y257750D02*X227910Y258500D01*
X229410D01*
X230160Y257750D01*
Y253250D01*
X229410Y252500D02*X230160Y253250D01*
X227910Y252500D02*X229410D01*
X227160Y253250D02*X227910Y252500D01*
Y255500D02*X230160D01*
X234662D02*X237662D01*
X242163Y258500D02*Y252500D01*
Y258500D02*X245163D01*
X242163Y255500D02*X244413D01*
X249215D02*X249965Y254750D01*
X247715Y255500D02*X249215D01*
X246965Y254750D02*X247715Y255500D01*
X246965Y254750D02*Y253250D01*
X247715Y252500D01*
X249965Y255500D02*Y253250D01*
X250715Y252500D01*
X247715D02*X249215D01*
X249965Y253250D01*
X252516Y258500D02*Y252500D01*
Y253250D02*X253266Y252500D01*
X254766D01*
X255516Y253250D01*
Y254750D02*Y253250D01*
X254766Y255500D02*X255516Y254750D01*
X253266Y255500D02*X254766D01*
X252516Y254750D02*X253266Y255500D01*
X258068Y254750D02*Y252500D01*
Y254750D02*X258818Y255500D01*
X260318D01*
X257318D02*X258068Y254750D01*
X262119Y257000D02*Y256250D01*
Y254750D02*Y252500D01*
X264371Y255500D02*X266621D01*
X263621Y254750D02*X264371Y255500D01*
X263621Y254750D02*Y253250D01*
X264371Y252500D01*
X266621D01*
X270672Y255500D02*X271422Y254750D01*
X269172Y255500D02*X270672D01*
X268422Y254750D02*X269172Y255500D01*
X268422Y254750D02*Y253250D01*
X269172Y252500D01*
X271422Y255500D02*Y253250D01*
X272172Y252500D01*
X269172D02*X270672D01*
X271422Y253250D01*
X274724Y258500D02*Y253250D01*
X275474Y252500D01*
X273974Y256250D02*X275474D01*
X276975Y257000D02*Y256250D01*
Y254750D02*Y252500D01*
X278477Y254750D02*Y253250D01*
Y254750D02*X279227Y255500D01*
X280727D01*
X281477Y254750D01*
Y253250D01*
X280727Y252500D02*X281477Y253250D01*
X279227Y252500D02*X280727D01*
X278477Y253250D02*X279227Y252500D01*
X284028Y254750D02*Y252500D01*
Y254750D02*X284778Y255500D01*
X285528D01*
X286278Y254750D01*
Y252500D01*
X283278Y255500D02*X284028Y254750D01*
X291530Y258500D02*Y252500D01*
X293780Y258500D02*X294530Y257750D01*
Y253250D01*
X293780Y252500D02*X294530Y253250D01*
X290780Y252500D02*X293780D01*
X290780Y258500D02*X293780D01*
X297081Y254750D02*Y252500D01*
Y254750D02*X297831Y255500D01*
X299331D01*
X296331D02*X297081Y254750D01*
X303383Y255500D02*X304133Y254750D01*
X301883Y255500D02*X303383D01*
X301133Y254750D02*X301883Y255500D01*
X301133Y254750D02*Y253250D01*
X301883Y252500D01*
X304133Y255500D02*Y253250D01*
X304883Y252500D01*
X301883D02*X303383D01*
X304133Y253250D01*
X306684Y255500D02*Y253250D01*
X307434Y252500D01*
X308184D01*
X308934Y253250D01*
Y255500D02*Y253250D01*
X309684Y252500D01*
X310434D01*
X311184Y253250D01*
Y255500D02*Y253250D01*
X312986Y257000D02*Y256250D01*
Y254750D02*Y252500D01*
X315237Y254750D02*Y252500D01*
Y254750D02*X315987Y255500D01*
X316737D01*
X317487Y254750D01*
Y252500D01*
X314487Y255500D02*X315237Y254750D01*
X321539Y255500D02*X322289Y254750D01*
X320039Y255500D02*X321539D01*
X319289Y254750D02*X320039Y255500D01*
X319289Y254750D02*Y253250D01*
X320039Y252500D01*
X321539D01*
X322289Y253250D01*
X319289Y251000D02*X320039Y250250D01*
X321539D01*
X322289Y251000D01*
Y255500D02*Y251000D01*
M02*
