G04 start of page 2 for group 0 idx 0 *
G04 Title: D3, component *
G04 Creator: pcb 20100929 *
G04 CreationDate: 2012年01月16日 星期一 05时02分32秒 UTC *
G04 For: dword *
G04 Format: Gerber/RS-274X *
G04 PCB-Dimensions: 200000 200000 *
G04 PCB-Coordinate-Origin: lower left *
%MOIN*%
%FSLAX25Y25*%
%LNFRONT*%
%ADD11C,0.0200*%
%ADD12C,0.0600*%
%ADD13C,0.0550*%
%ADD14C,0.0300*%
%ADD15C,0.0280*%
%ADD16C,0.0380*%
G54D11*G36*
X7000Y183000D02*Y177000D01*
X13000D01*
Y183000D01*
X7000D01*
G37*
G54D12*X10000Y190000D03*
G54D11*G36*
X37000Y183000D02*Y177000D01*
X43000D01*
Y183000D01*
X37000D01*
G37*
G36*
X7000Y163000D02*Y157000D01*
X13000D01*
Y163000D01*
X7000D01*
G37*
G54D12*X20000Y160000D03*
X80000Y130000D03*
G54D11*G36*
X17000Y123000D02*Y117000D01*
X23000D01*
Y123000D01*
X17000D01*
G37*
G54D12*X20000Y130000D03*
G54D11*G36*
X107000Y123000D02*Y117000D01*
X113000D01*
Y123000D01*
X107000D01*
G37*
G54D12*X120000Y120000D03*
G54D11*G36*
X87000Y123000D02*Y117000D01*
X93000D01*
Y123000D01*
X87000D01*
G37*
G54D12*X90000Y110000D03*
G54D11*G36*
X97000Y143000D02*Y137000D01*
X103000D01*
Y143000D01*
X97000D01*
G37*
G54D12*X100000Y130000D03*
G54D11*G36*
X67000Y103000D02*Y97000D01*
X73000D01*
Y103000D01*
X67000D01*
G37*
G54D12*X70000Y110000D03*
G54D13*X110000Y150000D03*
G54D11*G36*
X17000Y103000D02*Y97000D01*
X23000D01*
Y103000D01*
X17000D01*
G37*
G54D12*X10000Y100000D03*
G54D11*G36*
X17000Y113000D02*Y107000D01*
X23000D01*
Y113000D01*
X17000D01*
G37*
G36*
X27000Y143000D02*Y137000D01*
X33000D01*
Y143000D01*
X27000D01*
G37*
G54D12*X30000Y130000D03*
G54D11*G36*
X37000Y153000D02*Y147000D01*
X43000D01*
Y153000D01*
X37000D01*
G37*
G54D12*X40000Y140000D03*
Y130000D03*
X10000Y110000D03*
G54D11*G36*
X7000Y153000D02*Y147000D01*
X13000D01*
Y153000D01*
X7000D01*
G37*
G54D12*X10000Y140000D03*
G54D11*G36*
X27000Y103000D02*Y97000D01*
X33000D01*
Y103000D01*
X27000D01*
G37*
G54D12*X30000Y110000D03*
X40000Y120000D03*
X70000D03*
Y130000D03*
Y140000D03*
Y150000D03*
G54D11*G36*
X87000Y143000D02*Y137000D01*
X93000D01*
Y143000D01*
X87000D01*
G37*
G54D12*X90000Y130000D03*
G54D11*G36*
X77000Y143000D02*Y137000D01*
X83000D01*
Y143000D01*
X77000D01*
G37*
G36*
X77250Y152750D02*Y147250D01*
X82750D01*
Y152750D01*
X77250D01*
G37*
G54D12*X60000Y180000D03*
G54D11*G36*
X87000Y183000D02*Y177000D01*
X93000D01*
Y183000D01*
X87000D01*
G37*
G54D12*X90000Y190000D03*
G54D14*G54D15*G54D16*G54D14*G54D15*G54D14*G54D15*G54D14*G54D15*G54D14*G54D15*M02*
