M48
INCH
T14C0.030
T15C0.028
T16C0.038
%
T15
X001000Y016000
X002000Y016000
X008000Y013000
X002000Y012000
X002000Y013000
X010000Y014000
X010000Y013000
X007000Y010000
X007000Y011000
X002000Y010000
X001000Y010000
X002000Y011000
X003000Y014000
X003000Y013000
X004000Y015000
X004000Y014000
X004000Y013000
X001000Y011000
X003000Y010000
X003000Y011000
X004000Y012000
X007000Y012000
X007000Y013000
X007000Y014000
X007000Y015000
X009000Y014000
X009000Y013000
X008000Y014000
X009000Y018000
X009000Y019000
T14
X001000Y018000
X001000Y019000
X004000Y018000
X009000Y012000
X009000Y011000
X011000Y015000
X001000Y015000
X001000Y014000
X008000Y015000
X006000Y018000
T16
X011000Y012000
X012000Y012000
M30
