G04 start of page 8 for group -4079 idx -4079 *
G04 Title: D3, topsilk *
G04 Creator: pcb 20100929 *
G04 CreationDate: 2012年01月16日 星期一 05时02分32秒 UTC *
G04 For: dword *
G04 Format: Gerber/RS-274X *
G04 PCB-Dimensions: 200000 200000 *
G04 PCB-Coordinate-Origin: lower left *
%MOIN*%
%FSLAX25Y25*%
%LNFRONTSILK*%
%ADD11C,0.0200*%
%ADD18C,0.0100*%
G54D18*X105000Y125000D02*X115000D01*
Y115000D01*
X105000Y125000D02*Y115000D01*
Y125000D02*X125000D01*
Y115000D01*
X105000D02*X125000D01*
X25000Y105000D02*X35000D01*
G54D11*X25000Y110000D02*Y100000D01*
X35000Y110000D02*Y100000D01*
Y110000D02*G75*G03X25000Y110000I-5000J0D01*G01*
Y100000D02*G75*G03X35000Y100000I5000J0D01*G01*
G54D18*X15000Y105000D02*Y95000D01*
G54D11*X10000D02*X20000D01*
X10000Y105000D02*X20000D01*
X10000D02*G75*G03X10000Y95000I0J-5000D01*G01*
X20000D02*G75*G03X20000Y105000I0J5000D01*G01*
X10000Y115000D02*X20000D01*
X10000Y105000D02*X20000D01*
G54D18*X15000Y115000D02*Y105000D01*
G54D11*X20000D02*G75*G03X20000Y115000I0J5000D01*G01*
X10000D02*G75*G03X10000Y105000I0J-5000D01*G01*
G54D18*X90000Y103000D02*Y99000D01*
X88000Y129000D02*X92000D01*
X90000Y131000D02*Y127000D01*
Y125000D02*G75*G03X90000Y125000I0J-10000D01*G01*
X65000Y105000D02*X75000D01*
G54D11*X65000Y110000D02*Y100000D01*
X75000Y110000D02*Y100000D01*
Y110000D02*G75*G03X65000Y110000I-5000J0D01*G01*
Y100000D02*G75*G03X75000Y100000I5000J0D01*G01*
G54D18*X10000Y201000D02*Y197000D01*
X8000Y171000D02*X12000D01*
X10000Y173000D02*Y169000D01*
Y175000D02*G75*G03X10000Y175000I0J10000D01*G01*
X30000Y180000D02*G75*G03X30000Y180000I20000J0D01*G01*
X85000Y185000D02*X95000D01*
G54D11*X85000Y190000D02*Y180000D01*
X95000Y190000D02*Y180000D01*
Y190000D02*G75*G03X85000Y190000I-5000J0D01*G01*
Y180000D02*G75*G03X95000Y180000I5000J0D01*G01*
G54D18*X10000Y133000D02*Y129000D01*
X8000Y159000D02*X12000D01*
X10000Y161000D02*Y157000D01*
Y155000D02*G75*G03X10000Y155000I0J-10000D01*G01*
G54D11*X20000D01*
X10000Y165000D02*X20000D01*
G54D18*X15000D02*Y155000D01*
G54D11*X10000Y165000D02*G75*G03X10000Y155000I0J-5000D01*G01*
X20000D02*G75*G03X20000Y165000I0J5000D01*G01*
G54D18*X25000Y135000D02*X35000D01*
G54D11*Y140000D02*Y130000D01*
X25000Y140000D02*Y130000D01*
G75*G03X35000Y130000I5000J0D01*G01*
Y140000D02*G75*G03X25000Y140000I-5000J0D01*G01*
Y130000D02*Y120000D01*
X15000Y130000D02*Y120000D01*
G54D18*Y125000D02*X25000D01*
G54D11*X15000Y120000D02*G75*G03X25000Y120000I5000J0D01*G01*
Y130000D02*G75*G03X15000Y130000I-5000J0D01*G01*
G54D18*X60000Y155000D02*X75000D01*
X35000D02*X50000D01*
X75000Y115000D02*Y155000D01*
X35000Y115000D02*X75000D01*
X35000Y155000D02*Y115000D01*
X50000Y155000D02*G75*G03X60000Y155000I5000J0D01*G01*
X95000Y135000D02*X105000D01*
G54D11*Y140000D02*Y130000D01*
X95000Y140000D02*Y130000D01*
G75*G03X105000Y130000I5000J0D01*G01*
Y140000D02*G75*G03X95000Y140000I-5000J0D01*G01*
G54D18*X85000Y135000D02*X95000D01*
G54D11*Y140000D02*Y130000D01*
X85000Y140000D02*Y130000D01*
G75*G03X95000Y130000I5000J0D01*G01*
Y140000D02*G75*G03X85000Y140000I-5000J0D01*G01*
G54D18*X75000Y135000D02*X85000D01*
G54D11*Y140000D02*Y130000D01*
X75000Y140000D02*Y130000D01*
G75*G03X85000Y130000I5000J0D01*G01*
Y140000D02*G75*G03X75000Y140000I-5000J0D01*G01*
G54D18*X87500Y147500D02*Y152500D01*
X102500Y147500D02*X87500D01*
X102500Y152500D02*Y147500D01*
X87500Y152500D02*X102500D01*
Y150000D02*X110000D01*
X80000D02*X87500D01*
X12500Y184500D02*Y183000D01*
X12000Y182500D02*X12500Y183000D01*
X9000Y182500D02*X12000D01*
X9000D02*X8500Y183000D01*
Y184500D02*Y183000D01*
X10500Y185701D02*X8500Y187701D01*
X10500Y188201D02*Y185701D01*
X8500Y187701D02*X12500D01*
X47500Y181500D02*Y177500D01*
X49500D01*
X51201D02*X52201D01*
X51701Y181500D02*Y177500D01*
X50701Y180500D02*X51701Y181500D01*
X6500Y170000D02*Y166000D01*
X8000Y170000D02*X8500Y169500D01*
Y166500D01*
X8000Y166000D02*X8500Y166500D01*
X6000Y166000D02*X8000D01*
X6000Y170000D02*X8000D01*
X10201Y166000D02*X11201D01*
X10701Y170000D02*Y166000D01*
X9701Y169000D02*X10701Y170000D01*
X6500Y120000D02*Y116000D01*
X8000Y120000D02*X8500Y119500D01*
Y116500D01*
X8000Y116000D02*X8500Y116500D01*
X6000Y116000D02*X8000D01*
X6000Y120000D02*X8000D01*
X9701Y119500D02*X10201Y120000D01*
X11201D01*
X11701Y119500D01*
Y116500D01*
X11201Y116000D02*X11701Y116500D01*
X10201Y116000D02*X11201D01*
X9701Y116500D02*X10201Y116000D01*
Y118000D02*X11701D01*
X8000Y146500D02*Y142500D01*
X9500Y146500D02*X10000Y146000D01*
Y143000D01*
X9500Y142500D02*X10000Y143000D01*
X7500Y142500D02*X9500D01*
X7500Y146500D02*X9500D01*
X11201Y146000D02*X11701Y146500D01*
X13201D01*
X13701Y146000D01*
Y145000D01*
X11201Y142500D02*X13701Y145000D01*
X11201Y142500D02*X13701D01*
X26500Y146000D02*X28000D01*
X26000Y146500D02*X26500Y146000D01*
X26000Y149500D02*Y146500D01*
Y149500D02*X26500Y150000D01*
X28000D01*
X29201Y149500D02*X29701Y150000D01*
X30701D01*
X31201Y149500D01*
Y146500D01*
X30701Y146000D02*X31201Y146500D01*
X29701Y146000D02*X30701D01*
X29201Y146500D02*X29701Y146000D01*
Y148000D02*X31201D01*
X6000Y127500D02*X8000D01*
X8500Y127000D01*
Y126000D01*
X8000Y125500D02*X8500Y126000D01*
X6500Y125500D02*X8000D01*
X6500Y127500D02*Y123500D01*
Y125500D02*X8500Y123500D01*
X9701Y127000D02*X10201Y127500D01*
X11201D01*
X11701Y127000D01*
Y124000D01*
X11201Y123500D02*X11701Y124000D01*
X10201Y123500D02*X11201D01*
X9701Y124000D02*X10201Y123500D01*
Y125500D02*X11701D01*
X36000Y102500D02*X38000D01*
X38500Y102000D01*
Y101000D01*
X38000Y100500D02*X38500Y101000D01*
X36500Y100500D02*X38000D01*
X36500Y102500D02*Y98500D01*
Y100500D02*X38500Y98500D01*
X39701Y102500D02*X41701D01*
X39701D02*Y100500D01*
X40201Y101000D01*
X41201D01*
X41701Y100500D01*
Y99000D01*
X41201Y98500D02*X41701Y99000D01*
X40201Y98500D02*X41201D01*
X39701Y99000D02*X40201Y98500D01*
X6000Y95000D02*X8000D01*
X8500Y94500D01*
Y93500D01*
X8000Y93000D02*X8500Y93500D01*
X6500Y93000D02*X8000D01*
X6500Y95000D02*Y91000D01*
Y93000D02*X8500Y91000D01*
X9701Y94500D02*X10201Y95000D01*
X11701D01*
X12201Y94500D01*
Y93500D01*
X9701Y91000D02*X12201Y93500D01*
X9701Y91000D02*X12201D01*
X88000Y112500D02*X89500D01*
X87500Y113000D02*X88000Y112500D01*
X87500Y116000D02*Y113000D01*
Y116000D02*X88000Y116500D01*
X89500D01*
X91201Y112500D02*X92201D01*
X91701Y116500D02*Y112500D01*
X90701Y115500D02*X91701Y116500D01*
X56500Y103500D02*X58000D01*
X56000Y104000D02*X56500Y103500D01*
X56000Y107000D02*Y104000D01*
Y107000D02*X56500Y107500D01*
X58000D01*
X59201D02*X61201D01*
X59201D02*Y105500D01*
X59701Y106000D01*
X60701D01*
X61201Y105500D01*
Y104000D01*
X60701Y103500D02*X61201Y104000D01*
X59701Y103500D02*X60701D01*
X59201Y104000D02*X59701Y103500D01*
X96500Y176000D02*X98000D01*
X96000Y176500D02*X96500Y176000D01*
X96000Y179500D02*Y176500D01*
Y179500D02*X96500Y180000D01*
X98000D01*
X99201Y179500D02*X99701Y180000D01*
X101201D01*
X101701Y179500D01*
Y178500D01*
X99201Y176000D02*X101701Y178500D01*
X99201Y176000D02*X101701D01*
X92000Y152000D02*X94000D01*
X94500Y151500D01*
Y150500D01*
X94000Y150000D02*X94500Y150500D01*
X92500Y150000D02*X94000D01*
X92500Y152000D02*Y148000D01*
Y150000D02*X94500Y148000D01*
X95701Y150000D02*X97701Y152000D01*
X95701Y150000D02*X98201D01*
X97701Y152000D02*Y148000D01*
X52500Y138500D02*Y135000D01*
X53000Y134500D01*
X54000D01*
X54500Y135000D01*
Y138500D02*Y135000D01*
X56201Y134500D02*X57201D01*
X56701Y138500D02*Y134500D01*
X55701Y137500D02*X56701Y138500D01*
X108500Y132500D02*X110500D01*
X111000Y132000D01*
Y131000D01*
X110500Y130500D02*X111000Y131000D01*
X109000Y130500D02*X110500D01*
X109000Y132500D02*Y128500D01*
Y130500D02*X111000Y128500D01*
X112701D02*X113701D01*
X113201Y132500D02*Y128500D01*
X112201Y131500D02*X113201Y132500D01*
X115402Y128500D02*X116902D01*
X114902Y129000D02*X115402Y128500D01*
X114902Y132000D02*Y129000D01*
Y132000D02*X115402Y132500D01*
X116902D01*
X108500Y137500D02*X110500D01*
X111000Y137000D01*
Y136000D01*
X110500Y135500D02*X111000Y136000D01*
X109000Y135500D02*X110500D01*
X109000Y137500D02*Y133500D01*
Y135500D02*X111000Y133500D01*
X112701D02*X113701D01*
X113201Y137500D02*Y133500D01*
X112201Y136500D02*X113201Y137500D01*
X114902Y133500D02*X116902D01*
X117402Y134000D01*
Y135000D02*Y134000D01*
X116902Y135500D02*X117402Y135000D01*
X115402Y135500D02*X116902D01*
X115402Y137500D02*Y133500D01*
X114902Y137500D02*X116902D01*
X117402Y137000D01*
Y136000D01*
X116902Y135500D02*X117402Y136000D01*
X108500Y142500D02*X110500D01*
X111000Y142000D01*
Y141000D01*
X110500Y140500D02*X111000Y141000D01*
X109000Y140500D02*X110500D01*
X109000Y142500D02*Y138500D01*
Y140500D02*X111000Y138500D01*
X112701D02*X113701D01*
X113201Y142500D02*Y138500D01*
X112201Y141500D02*X113201Y142500D01*
X114902Y142000D02*Y138500D01*
Y142000D02*X115402Y142500D01*
X116902D01*
X117402Y142000D01*
Y138500D01*
X114902Y140500D02*X117402D01*
X107500Y112500D02*X109000D01*
Y109000D01*
X108500Y108500D02*X109000Y109000D01*
X108000Y108500D02*X108500D01*
X107500Y109000D02*X108000Y108500D01*
X110701D02*X111701D01*
X111201Y112500D02*Y108500D01*
X110201Y111500D02*X111201Y112500D01*
M02*
