G04 start of page 7 for group -4062 idx -4062 *
G04 Title: D3, soldermask *
G04 Creator: pcb 20100929 *
G04 CreationDate: 2012年01月16日 星期一 05时02分32秒 UTC *
G04 For: dword *
G04 Format: Gerber/RS-274X *
G04 PCB-Dimensions: 200000 200000 *
G04 PCB-Coordinate-Origin: lower left *
%MOIN*%
%FSLAX25Y25*%
%LNBACKMASK*%
%ADD11C,0.0200*%
%ADD19C,0.0660*%
%ADD20C,0.0610*%
G54D11*G36*
X6700Y183300D02*Y176700D01*
X13300D01*
Y183300D01*
X6700D01*
G37*
G54D19*X10000Y190000D03*
G54D11*G36*
X36700Y183300D02*Y176700D01*
X43300D01*
Y183300D01*
X36700D01*
G37*
G36*
X6700Y163300D02*Y156700D01*
X13300D01*
Y163300D01*
X6700D01*
G37*
G54D19*X20000Y160000D03*
X80000Y130000D03*
G54D11*G36*
X16700Y123300D02*Y116700D01*
X23300D01*
Y123300D01*
X16700D01*
G37*
G54D19*X20000Y130000D03*
G54D11*G36*
X106700Y123300D02*Y116700D01*
X113300D01*
Y123300D01*
X106700D01*
G37*
G54D19*X120000Y120000D03*
G54D11*G36*
X86700Y123300D02*Y116700D01*
X93300D01*
Y123300D01*
X86700D01*
G37*
G54D19*X90000Y110000D03*
G54D11*G36*
X96700Y143300D02*Y136700D01*
X103300D01*
Y143300D01*
X96700D01*
G37*
G54D19*X100000Y130000D03*
G54D11*G36*
X66700Y103300D02*Y96700D01*
X73300D01*
Y103300D01*
X66700D01*
G37*
G54D19*X70000Y110000D03*
G54D20*X110000Y150000D03*
G54D11*G36*
X16700Y103300D02*Y96700D01*
X23300D01*
Y103300D01*
X16700D01*
G37*
G54D19*X10000Y100000D03*
G54D11*G36*
X16700Y113300D02*Y106700D01*
X23300D01*
Y113300D01*
X16700D01*
G37*
G36*
X26700Y143300D02*Y136700D01*
X33300D01*
Y143300D01*
X26700D01*
G37*
G54D19*X30000Y130000D03*
G54D11*G36*
X36700Y153300D02*Y146700D01*
X43300D01*
Y153300D01*
X36700D01*
G37*
G54D19*X40000Y140000D03*
Y130000D03*
X10000Y110000D03*
G54D11*G36*
X6700Y153300D02*Y146700D01*
X13300D01*
Y153300D01*
X6700D01*
G37*
G54D19*X10000Y140000D03*
G54D11*G36*
X26700Y103300D02*Y96700D01*
X33300D01*
Y103300D01*
X26700D01*
G37*
G54D19*X30000Y110000D03*
X40000Y120000D03*
X70000D03*
Y130000D03*
Y140000D03*
Y150000D03*
G54D11*G36*
X86700Y143300D02*Y136700D01*
X93300D01*
Y143300D01*
X86700D01*
G37*
G54D19*X90000Y130000D03*
G54D11*G36*
X76700Y143300D02*Y136700D01*
X83300D01*
Y143300D01*
X76700D01*
G37*
G36*
X76950Y153050D02*Y146950D01*
X83050D01*
Y153050D01*
X76950D01*
G37*
G54D19*X60000Y180000D03*
G54D11*G36*
X86700Y183300D02*Y176700D01*
X93300D01*
Y183300D01*
X86700D01*
G37*
G54D19*X90000Y190000D03*
M02*
